<?xml version="1.0" encoding="utf-8"?>
<!-- Generator: Adobe Illustrator 16.0.0, SVG Export Plug-In . SVG Version: 6.00 Build 0)  -->
<!DOCTYPE svg PUBLIC "-//W3C//DTD SVG 1.1//EN" "http://www.w3.org/Graphics/SVG/1.1/DTD/svg11.dtd">
<svg version="1.1" id="Calque_2" xmlns="http://www.w3.org/2000/svg" xmlns:xlink="http://www.w3.org/1999/xlink" x="0px" y="0px"
	 width="1000px" height="1000px" viewBox="0 0 1000 1000" enable-background="new 0 0 1000 1000" xml:space="preserve">
<g>
	<defs>
		<rect id="SVGID_1_" width="1000" height="1000"/>
	</defs>
	<clipPath id="SVGID_2_">
		<use xlink:href="#SVGID_1_"  overflow="visible"/>
	</clipPath>
	<path clip-path="url(#SVGID_2_)" fill="#FFFFFF" d="M977.665,897.145c0,44.838-36.345,81.192-81.192,81.192H104.857
		c-44.837,0-81.192-36.354-81.192-81.192V105.529c0-44.847,36.355-81.192,81.192-81.192h791.615
		c44.848,0,81.192,36.345,81.192,81.192V897.145z"/>
	<g clip-path="url(#SVGID_2_)">
		<polygon fill="#183C4F" points="285.006,317.927 285.006,435.163 720.024,268.116 720.024,150.89 		"/>
		<polygon fill="#183C4F" points="285.006,634.771 720.024,467.723 720.024,350.497 285.006,517.539 		"/>
		<polygon fill="#4EBEC0" points="308.742,690.16 720.024,852.233 720.024,734.997 457.477,631.537 		"/>
	</g>
</g>
</svg>
