<?xml version="1.0" encoding="UTF-8"?>
<svg width="720pt" version="1.1" xmlns="http://www.w3.org/2000/svg" height="120pt" viewBox="0 0 720 120" xmlns:xlink="http://www.w3.org/1999/xlink">
 <defs>
  <clipPath id="Clip0">
   <path d="M-179.32 -342.228 L620.68 -342.228 L620.68 457.772 L-179.32 457.772 L-179.32 -342.228 Z" transform="translate(101.32, 3.228)"/>
  </clipPath>
  <clipPath id="Clip1">
   <path d="M0 0 L68.9883 0 L68.9883 111.178 L0 111.178 L0 0 Z" transform="translate(1.0304, 4.7296)"/>
  </clipPath>
  <clipPath id="Clip2">
   <path d="M0 0 L65.224 0 L65.224 34.986 L0 34.986 L0 0 Z" transform="translate(4.79469, 80.9213)"/>
  </clipPath>
 </defs>
 <g id="Background">
  <g id="Group1" clip-path="url(#Clip0)">
   <path style="fill:#173c4f; fill-rule:nonzero;stroke:none;" d="M13.1616 43.16 L13.1616 104.884 L6.8936 104.884 L6.8936 43.16 L0 43.16 L0 36.8952 L6.8936 36.8952 L6.8936 18.4864 C7.2064 13.368 9.164 8.9576 12.7696 5.2488 C16.5792 1.7512 20.94 0 25.8496 0 C28.4584 0 31.2024 0.4976 34.0736 1.4888 L32.116 7.0512 C30.1824 6.2144 28.304 5.7976 26.476 5.7976 C23.236 5.7976 20.1592 7.1032 17.2328 9.7136 C14.6752 12.2728 13.3168 15.3544 13.1624 18.956 L13.1624 36.8944 L27.0256 36.8944 L27.0256 43.1592 L13.1616 43.1592 L13.1616 43.16 Z" transform="translate(101.32, 9.1016)"/>
   <path style="fill:#173c4f; fill-rule:nonzero;stroke:none;" d="M6.8152 34.5416 C6.66 35.6408 6.5808 36.8152 6.5808 38.0688 C6.5808 46.7376 9.648 54.1264 15.7856 60.2344 C21.9216 66.3424 29.3232 69.3984 37.992 69.3984 C46.6608 69.3984 54.0752 66.3168 60.2392 60.1552 C61.2816 59.112 62.2728 58.0136 63.2144 56.868 L69.8712 59.2176 C69.088 60.5248 67.4456 62.4008 64.9384 64.8584 C57.5232 72.324 48.5392 76.0592 37.992 76.0592 C27.5464 76.0592 18.6032 72.3392 11.1632 64.896 C3.7232 57.4552 0 48.5128 0 38.0696 C0 27.5192 3.7224 18.5384 11.1632 11.1232 C18.6032 3.7064 27.5464 0 37.992 0 C48.54 0 57.5232 3.7072 64.9384 11.1232 C71.4656 17.7032 74.728 25.5096 74.728 34.5416 L6.8152 34.5416 L6.8152 34.5416 Z M7.9904 28.2 L67.68 28.2 C66.2184 23.4456 63.736 19.3208 60.24 15.8232 C54.076 9.6592 46.6616 6.5784 37.9928 6.5784 C29.3248 6.5784 21.9072 9.6592 15.7464 15.8232 C12.092 19.5296 9.5056 23.6544 7.9904 28.2 Z" transform="translate(133.669, 39.8872)"/>
   <path style="fill:#173c4f; fill-rule:nonzero;stroke:none;" d="M6.8152 34.5416 C6.66 35.6408 6.5784 36.8152 6.5784 38.0688 C6.5784 46.7376 9.6472 54.1264 15.784 60.2344 C21.9192 66.3424 29.3216 69.3984 37.9896 69.3984 C46.6576 69.3984 54.0752 66.3168 60.2368 60.1552 C61.2816 59.112 62.2736 58.0136 63.212 56.868 L69.872 59.2176 C69.0888 60.5248 67.4432 62.4008 64.936 64.8584 C57.5216 72.324 48.5376 76.0592 37.9896 76.0592 C27.5464 76.0592 18.604 72.3392 11.1608 64.896 C3.7208 57.4552 0 48.5128 0 38.0696 C0 27.5192 3.72 18.5384 11.1608 11.1232 C18.604 3.7064 27.5464 0 37.9896 0 C48.5376 0 57.5216 3.7072 64.936 11.1232 C71.4632 17.7032 74.7256 25.5096 74.7256 34.5416 L6.8152 34.5416 L6.8152 34.5416 Z M7.9896 28.2 L67.6768 28.2 C66.2152 23.4456 63.7328 19.3208 60.2368 15.8232 C54.0752 9.6592 46.6576 6.5784 37.9896 6.5784 C29.3216 6.5784 21.9064 9.6592 15.7424 15.8232 C12.092 19.5296 9.5032 23.6544 7.9896 28.2 Z" transform="translate(215.29, 39.8872)"/>
   <path style="fill:#173c4f; fill-rule:nonzero;stroke:none;" d="M75.1208 110.757 L68.8528 110.757 L68.8528 96.8936 C67.6528 98.5128 66.3448 100.054 64.936 101.517 C57.5216 108.982 48.5376 112.718 37.9896 112.718 C27.5464 112.718 18.604 108.998 11.1608 101.554 C3.72 94.1136 0 85.1712 0 74.728 C0 64.1776 3.72 55.1968 11.1608 47.7816 C18.6032 40.3648 27.5464 36.6584 37.9896 36.6584 C48.5376 36.6584 57.5216 40.3656 64.936 47.7816 C66.3448 49.244 67.6528 50.7832 68.8528 52.4016 L68.8528 0 L75.1208 0 L75.1208 110.757 Z M68.8528 80.8384 L68.8528 68.5384 C67.7056 62.4288 64.8328 57.0776 60.2376 52.4824 C54.076 46.3184 46.6576 43.2376 37.9896 43.2376 C29.3216 43.2376 21.9192 46.3184 15.784 52.4824 C9.648 58.6456 6.5816 66.0592 6.5816 74.728 C6.5816 83.3968 9.648 90.7856 15.784 96.8936 C21.9192 103.002 29.3216 106.058 37.9896 106.058 C46.6576 106.058 54.0752 102.976 60.2376 96.8144 C64.8328 92.22 67.7064 86.8952 68.8528 80.8384 Z" transform="translate(298.632, 3.228)"/>
   <path style="fill:#173c4f; fill-rule:nonzero;stroke:none;" d="M25.772 6.0304 C22.3768 6.7096 18.9312 8.8264 15.4296 12.376 C9.5304 18.2248 6.4744 25.2472 6.268 33.4456 L6.268 68.536 L0 68.536 L0 0.548 L6.268 0.548 L6.268 12.924 C7.5192 11.0976 9.0104 9.3208 10.7312 7.5984 C14.5456 3.7872 18.4072 1.2528 22.324 0 L25.772 6.0304 Z" transform="translate(386.754, 45.4488)"/>
   <path style="fill:#173c4f; fill-rule:nonzero;stroke:none;" d="M75.1184 110.757 L68.8528 110.757 L68.8528 96.8936 C67.6504 98.5128 66.3432 100.054 64.9352 101.517 C57.5224 108.982 48.5384 112.718 37.988 112.718 C27.548 112.718 18.6048 108.998 11.1624 101.554 C3.7224 94.1136 0 85.1712 0 74.728 C0 64.1776 3.7224 55.1968 11.1624 47.7816 C18.6056 40.3648 27.548 36.6584 37.988 36.6584 C48.5384 36.6584 57.5224 40.3656 64.9352 47.7816 C66.344 49.244 67.6512 50.7832 68.8528 52.4016 L68.8528 0 L75.1184 0 L75.1184 110.757 Z M68.8528 80.8384 L68.8528 68.5384 C67.7032 62.4288 64.8304 57.0776 60.236 52.4824 C54.0752 46.3184 46.66 43.2376 37.988 43.2376 C29.3224 43.2376 21.9184 46.3184 15.7848 52.4824 C9.6496 58.6456 6.58 66.0592 6.58 74.728 C6.58 83.3968 9.6496 90.7856 15.7848 96.8936 C21.9184 103.002 29.3224 106.058 37.988 106.058 C46.66 106.058 54.0744 102.976 60.236 96.8144 C64.8296 92.22 67.7032 86.8952 68.8528 80.8384 Z" transform="translate(418.322, 3.228)"/>
   <path style="fill:#173c4f; fill-rule:nonzero;stroke:none;" d="M25.7688 6.0304 C22.3736 6.7096 18.9288 8.8264 15.4328 12.376 C9.528 18.2248 6.4744 25.2472 6.2648 33.4456 L6.2648 68.536 L0 68.536 L0 0.548 L6.2648 0.548 L6.2648 12.924 C7.5184 11.0976 9.0072 9.3208 10.7304 7.5984 C14.5392 3.7872 18.4048 1.2528 22.3232 0 L25.7688 6.0304 Z" transform="translate(506.444, 45.4488)"/>
   <path style="fill:#5372BA; fill-rule:nonzero;stroke:none;" d="M10.6128 1.8024 C11.8416 3.0024 12.4552 4.464 12.4552 6.1856 C12.4552 7.912 11.8416 9.3736 10.6128 10.5744 C9.388 11.7744 7.9384 12.3752 6.268 12.3752 C4.544 12.3752 3.0688 11.7744 1.8408 10.5744 C0.6152 9.3736 0 7.912 0 6.1856 C0 4.464 0.6152 3.0024 1.8408 1.8024 C3.0688 0.5992 4.544 0 6.268 0 C7.9384 0 9.388 0.6 10.6128 1.8024 Z" transform="translate(536.52, 102.55)"/>
   <path style="fill:#5372BA; fill-rule:nonzero;stroke:none;" d="M62.4288 57.728 L69.0072 60.156 C67.8064 61.776 66.4496 63.3424 64.9336 64.8584 C57.5176 72.324 48.5376 76.0592 37.9872 76.0592 C27.5464 76.0592 18.604 72.3392 11.1608 64.896 C3.72 57.4552 0 48.4872 0 37.9904 C0 27.4944 3.72 18.5384 11.1608 11.1232 C18.604 3.7064 27.5464 0 37.9872 0 C48.5376 0 57.5176 3.7072 64.9336 11.1232 C66.4496 12.6376 67.8064 14.204 69.0072 15.8232 L62.4288 18.252 C61.7496 17.4152 61.02 16.5784 60.2344 15.7432 C54.0736 9.6344 46.6576 6.5784 37.9872 6.5784 C29.3712 6.5784 21.9984 9.6464 15.8592 15.7832 C9.7232 21.9192 6.6576 29.3192 6.6576 37.9896 C6.6576 46.6552 9.7232 54.0608 15.8592 60.196 C21.9984 66.332 29.372 69.3984 37.9872 69.3984 C46.6576 69.3984 54.0728 66.3168 60.2344 60.1552 C61.0208 59.3752 61.7504 58.5664 62.4288 57.728 Z" transform="translate(557.358, 39.8872)"/>
   <path style="fill:#5372BA; fill-rule:nonzero;stroke:none;" d="M37.9888 0 C48.5392 0 57.5072 3.7072 64.8952 11.1232 C72.284 18.5384 75.9784 27.5192 75.9784 38.0696 C75.9784 48.5136 72.284 57.4552 64.8952 64.896 C57.508 72.3392 48.5392 76.0592 37.9888 76.0592 C27.5456 76.0592 18.6032 72.3392 11.1632 64.896 C3.7224 57.4552 0 48.5128 0 38.0696 C0 27.5192 3.7224 18.5384 11.1632 11.1232 C18.6032 3.7072 27.5456 0 37.9888 0 Z M15.7832 15.824 C9.6472 21.9872 6.58 29.4008 6.58 38.0696 C6.58 46.7384 9.6472 54.1272 15.7832 60.2352 C21.9184 66.3432 29.3208 69.3992 37.9888 69.3992 C46.6576 69.3992 54.06 66.3432 60.1952 60.2352 C66.3312 54.1272 69.4008 46.7384 69.4008 38.0696 C69.4008 29.4008 66.3312 21.9864 60.1952 15.824 C54.06 9.66 46.6576 6.5792 37.9888 6.5792 C29.3208 6.58 21.9184 9.6608 15.7832 15.824 Z" transform="translate(636.078, 39.8864)"/>
  </g>
  <g id="Group5" clip-path="url(#Clip1)">
   <path style="fill:#173c4f; fill-rule:nonzero;stroke:none;" d="M68.9883 18.5836 L0 45.0632 L0 26.4791 L68.9883 0 L68.9883 18.5836 Z" transform="translate(1.0304, 4.7296)"/>
   <path style="fill:#173c4f; fill-rule:nonzero;stroke:none;" d="M68.9883 18.5832 L0 45.0623 L0 26.4796 L68.9883 0 L68.9883 18.5832 Z" transform="translate(1.0304, 36.371)"/>
   <g id="Group2" clip-path="url(#Clip2)">
    <path style="fill:#5372BA; fill-rule:nonzero;stroke:none;" d="M0 9.29274 L65.224 34.986 L65.224 16.4028 L23.5891 0 L0 9.29274 Z" transform="translate(4.79469, 80.9213)"/>
   </g>
  </g>
 </g>
</svg>
